<mxfile host="65bd71144e">
    <diagram id="1utf-MFd6y52TbmmOSgz" name="Page-1">
        <mxGraphModel dx="702" dy="602" grid="1" gridSize="10" guides="1" tooltips="1" connect="1" arrows="1" fold="1" page="1" pageScale="1" pageWidth="850" pageHeight="1100" math="0" shadow="0">
            <root>
                <mxCell id="0"/>
                <mxCell id="1" parent="0"/>
                <mxCell id="2" value="http://ics2o.mths.ca" style="swimlane;whiteSpace=wrap;html=1;" vertex="1" parent="1">
                    <mxGeometry x="50" y="40" width="760" height="480" as="geometry"/>
                </mxCell>
                <mxCell id="3" value="&lt;div style=&quot;color: rgb(230, 237, 243); background-color: rgb(13, 17, 23); font-family: Consolas, &amp;quot;Courier New&amp;quot;, monospace; font-size: 14px; line-height: 19px;&quot;&gt;&lt;span style=&quot;color: #a5d6ff;&quot;&gt;Choose your pizza (JS)&lt;/span&gt;&lt;/div&gt;" style="rounded=0;whiteSpace=wrap;html=1;" vertex="1" parent="2">
                    <mxGeometry y="20" width="760" height="60" as="geometry"/>
                </mxCell>
                <mxCell id="4" value="Pizza Size" style="text;html=1;strokeColor=none;fillColor=none;align=center;verticalAlign=middle;whiteSpace=wrap;rounded=0;" vertex="1" parent="2">
                    <mxGeometry x="20" y="120" width="180" height="30" as="geometry"/>
                </mxCell>
                <mxCell id="5" value="Number of toppings" style="text;html=1;strokeColor=none;fillColor=none;align=center;verticalAlign=middle;whiteSpace=wrap;rounded=0;" vertex="1" parent="2">
                    <mxGeometry x="20" y="150" width="180" height="30" as="geometry"/>
                </mxCell>
                <mxCell id="7" value="*Display the pizza here*" style="text;html=1;strokeColor=none;fillColor=none;align=center;verticalAlign=middle;whiteSpace=wrap;rounded=0;" vertex="1" parent="2">
                    <mxGeometry x="10" y="340" width="200" height="30" as="geometry"/>
                </mxCell>
                <mxCell id="10" value="" style="shape=image;verticalLabelPosition=bottom;labelBackgroundColor=default;verticalAlign=top;aspect=fixed;imageAspect=0;image=data:image/png,/9j/2wBDAAYEBQYFBAYGBQYHBwYIChAKCgkJChQODwwQFxQYGBcUFhYaHSUfGhsjHBYWICwgIyYnKSopGR8tMC0oMCUoKSj/2wBDAQcHBwoIChMKChMoGhYaKCgoKCgoKCgoKCgoKCgoKCgoKCgoKCgoKCgoKCgoKCgoKCgoKCgoKCgoKCgoKCgoKCj/wAARCAGQAZADASIAAhEBAxEB/8QAHAABAAICAwEAAAAAAAAAAAAAAAcIAQYCBAUD/8QATxAAAQMDAQYDBQUCCAwEBwAAAQACAwQFEQYHEiExQVFhcYEIExSRoSIyscHRFUIjM1JicrLC4RYXGDQ1Q1OCkpOi8CQlVYM2REZUY7Px/8QAGwEBAAEFAQAAAAAAAAAAAAAAAAQBAgMFBgf/xAA3EQACAQMCBQIEBQMEAgMAAAAAAQIDBBEFIQYSMUFRE2EUcYGRIjKhsdEVweEWIyQzUvAlQvH/2gAMAwEAAhEDEQA/ALUoiIAiIgCIiAIiIAiIgCIiAIiIAiIgCIiAIiIAiIgCIiAIiIAiIgCIiAIiIAiIgCIiAIiIAiIgCIiAIiIAiIgCIiAIiIAiIgCIiAIiIAiIgCIiAIiIAiIgCIiAIiIAiIgCIiAIiIAiIgCIiAIiIAiIgCIiAIiIAiIgCIiAIiIAiIgCIiAIiIAiIgCIiAIiIAiIgCIiAIiIAiIgCIiAIiIAiIgCIiAIiIAiIgCIiAIiIAiIgCIiAIiIAiIgCIiAIiIAiIgCIiAIiIAiIgCIiAIiIAiIgCIiAIiIAiIgCIiAIiIAiIgCIiAIiIAiIgCIiAIiIAiIgCIiAIiIAiIgCIiAIiIAiIgCIiAIiIAiIgCIiAIiIAiIgCIiAIiIAiIgCIiAIiIAiIgCIiAIiIAiIgCIiAIiIAiIgCIiAIiIAiIgCIiAIiIAiIgCIiAIiIAiIgCIiAIiIAiIgCIiAIiIAiIgCIiAIiIAiIThAYWCunW3SioIjJW1cEDBzdI8NA+ZWqXDajo2gOJr7TvI6QB0v9QEI2l1M1O2rVfyQb+SN4BWCVFNXt00nASIf2hVY6xQYz/xELz37f7AM+7ttzd2y2Mf2ireZeSXHSbyXSm/sTLjH6JxHbChN3tBWkHhaK4+bmj817OkdrcGqr1DbbdZK3fecvkL27sbRzcT2H15KvOn3FXR7ylBznBpLq9iVkTosEgDJ4BVNcZREQBERAEREAREQBERAccrK+HxUQqPc77fe4zu544X3HFYoVIzzyvONirTXUBYPDwXQvNe62WuorBTT1Jhbv8AuYAC9wHPdBIBOMnGeiir/H7YGuIfbboMHB/g2ZH/AFLI2l1JFvZV7nLpRbx1wTKsqHG7ftN5+1QXYeUTD/bXag27aUkOHtuEX9KAH8CVTK8md6TeLrSf2JXTKj6k2waKqHAC7mInpLTyN+pbj6rY7bq3T9zIFDeaGdx5NZM0n5Zyqpp9yPUs69PecGvmmbAi+bHteAWuaQeWDlfQqpHewREQBERAEREAREQBERAEREAREQBERAEREBxJWAhUPbYdqrNPb9osD2S3QjEsvNsA7eLvDp1VG0llkm0tKt3VVKkst/obnrfX9k0hDi4VAkrCN5lLGQ6QjoSOg8SoA1ftk1He5HR294tVGcgNhOZHDxeeI9MeqjitqqivqpaqsnfNUSEl75CSSe5K6/NYXUbO/wBP4dt7aKlVXNL36fRHYrK2qrpTLW1M1RITkuleXH6rrlMpzVhv4U4wWIowiIhefamglqKiOCBhfLI4NY1oySScABW92TaIh0dYGskDX3OpAkqZMdejB4D6nJUS+zppAXK7S6gro809Gdyna4cHSEcXeg5eJ8FZTjnhwCywjjc4LibU3OfwtN7Lr7sw57WNJcQGgZJPIBaZf74+qc6CmJEAOCRwLv7l99VXUveaOE4aPvkdT2Wi1OorVSVPw1RcKZlRnBYZBkHsVw2v6xVrTdraZaXVo1unWDkvUks+ESRpm6mpjFNM7+FYOBP7w/UL3zjPJRfTVBieyeB+CCHAg5CkGz3BlfStkGA8DDh2P6LYcN6z8TH4as/xpbe6I1/aelLnitn+h6SIi641oREQBERAcV0rnWsoaR0z8Z5Adz0C7b3hjS5xAAGSStCvtxNfVndP8CwlrR37n1Wj1zVY6fQePzvZL+5KtLd1547LqdKWpllqXTl5EpOcg8QfBbbYLx8YPc1BAnA4Ho4fqop1Rq+16dLY6t0kk7hvCKIBzsdzkgAeq+ulNX2++uJt8j46mLBMcgAeB3GCQR5FcPpt1fWUvi2m4N75/c6K4091aWeXCXR4JwPEKs233QbbPXft+2R4oap+J2AcIpD1HYH6HPfhYWw3EV9ICcCVnB48e/quWoLVS3u01Vur2B9PUMLHDqM8iOxBwQe4XpdCvC7pKrB5TWTTafeVNNuVJ9OjXlFFMkOTrletqezT6fv1Za6sEyUzy0OxgOb0I8xgryeYVD1OlUjVgpxeU90CgJByDghYWcoXuKfU2Cxax1BYntda7vVQhpzuF+8w+bTkH5KYtFbdmSOZTaqpmxOOB8XADunxc3iR5jPkFX04zwT6K5Ta6GsvNHtbtNTgs+Vsy+VtuFJdKKOqoKiOop5BvMkjcCCPAhdsqmGgdd3bRtYH0Mplo3uBmpHk7jx1I7HxCtfo/U1u1VaI7hbJQ9jhh7CftRu6tI6H8VmjNSOB1TR6thLPWL6P+TYkRFcacIiIAiIgCIiAIiIAiIgCIiAxzRF1bhWQ0FFPVVL2xwwMdI97uTWgZJ+SBJyeER/tn123SVj+Gonh12rAWwj/AGbeRefLkO58iqnTSSTTPkleXyPJc5zjkuJ5kle9rvUk+rNTVdym3tx7i2CMn+LjHIeeOJ8SVr44cVHnLmZ6hommqyoLK/E92/7HFERWm6CIiAyucUT5pmRRMc+SRwY1rRkuJOAB6rgOJK3rYrZxeNodsje3eipyah4I4fZGR/1YSKy8Ee7rKhRlUfZNln9AWFmmdKUFsYAXxRgyuH7zzxcfmTjwAXp3utFDRPkGN88Gg916AGBjsFp+sKv3lWynafsxjJHif7sfNQdcvfgrOc08N7L6nlNCLurjMt8vLNM1PUVENiuE1Nk1Aie5rhzzjn59VWh7nSOc5xJcTkknJJVqHgPaQ4DBGCD1WnVmzmw1NaakxSx7x3nRxv3WE+WMj0IXC6Jq1Gy5/XXXfJ29hdQt01JdT5bIampqNK4qS4tjmdHE53MsAB+QJI9PBSHaa59BVCRpJaeD29wvLoaOnoaaOnpImxQRjda0DgAuxy5laitet3buaG2+Ua+55a0pZWz7EmU87KiFssTgWOGQQvtgdlpOm7r8HN7iZ38DIeBPQ/ot0aQ4Ag+S9T0jU4ahQU1tJbNe5ylzbuhPlfTsfRERbYjnFZWOXBebebg230hdwL3cGjx7+QUe5rwt6bq1HhJF0IOclGK3Z5Wq7nuNNHC77RGXkdB2Wqea41tUxm/UVcrGNJ3nOkcAMnuSvnTVUNXEJKaVksZ4B0bg4fMLyTVL2rqFZ12vw9F4SOptrf0KaS+rIK2o0dRTavq5agOMUwa6J55EBoGB5EEY/VfbZLSVE2rIp4Wu9xCxxld0AIwB5k9PBTXW0FLWsDK2ninYDkCRocB81mjo6Wgi3KSGOBmc7rGhoz6LZ/6h5rL4VQ/FjGTdvUM0PSxvjGT17NWmhr2SZPuzweO4P6c1ITXBwBByCMgqL+B4gretMVfxVtjDjl8Z3D445H5LY8I37jKVrN+6/g5LVKPSovkyFfaZ05uPoNQ07B9ommnIHXBLCfkRnyUCBXT2nWcXzQ13oy0F5gL2eDm/aB+YVLfunB5hdxUWHk6vhi6da19NveLx9DiiIrDpgiIgMrbtnGsanRmoIquPekopCG1MI/eZnmPEcx/etR5uwsjg5E8PJguLeFxTdKosp7F8LZX09zoYKyikbLTTsbJG9vIgjIXc8lAPs4ax3hNpqteeGZqMuPT99n5j17KflJTysnlGoWcrOvKlLounujkiIqkMIiIAiIgCIiAIiIAhREBxOFDvtHal/ZumIrPA/FRcXHfAPERtwTnzOB81ML8AZ7cVTnbDfzqHXtwna7eggd8NEM8A1mQceZLj6q2bwjecPWfxN2m1tHf+DSERFHPTgiIgCIiAz0U4ey7RCS8XquLf4mGOJpP84kn+oPmoPHNWS9l2FrdM3afH2n1e4T3wxp/NXU1uaHiOo4WMku+F+pNTuXkowvlW1slbVSHLGFzzjngA/kFJdS7dp5D2BP0UYVDGzskZIAWvBBB5EHmFx/GFZL0qb6N5f0OL0mK5nJlfrpri+Vta6eOvmpo85ZFEd0AdAe/qpT2aaim1BaJPjcGqp3hjngY3wRkHHdaTddl1ybXPFtmhfSF2WmRxBaOx4ccKQ9D6bZpu1GEvEs8jt+V4GATjAA8AtfrFfT52ajQS5tsY6/U7G8nbOilTxnbp1+psZ+6SOigXVetLtX3eoFNXTUtLE8tjZC4tyAcZcRxJKno8sKKNUbNaqouk9VapohHO8vMcmRuknJweoytfw9VtaVVu5x7Noj6fOlGbdbHtk9PZTqatu4qKK4yGaSABzJSOJaTjB7nxU5aXuvvmClnP8IB9gk8x28wok0BpIabp5ZJpBNVzYD3NGAAOQHfzW3RPfFIJI3FrmnIcOhWX+qws9Qda1X4HjKXRmv1SjSuZNU9l2JSWOGV5djuIuFKHHAlbweB0PceBXqdF6Xb143FNVYPZrJyE4OEnGXVHzmlbDGZJMBrRkk9Ao/u9e+4VTpDkMbwY3sP1XraruZe80cJ+y05kI6nstbXAcUas68/hqX5V192bvTrbkXqS6voQfteuVVPqV9E97hTU7GljM4DiQCT4njj0XT2YXGqo9VUkFO9xhqSWSx54EYJzjuOefNStq/R9DqQRyTF0VVGMNmjAzjsQeYXx0loig07K6pY59RVuG6JJMDdHXAHLPdIavaLTvQcfxYxjHfydZG8oq29NrfGMe/k2zxUEbTr5WVuoaqidLIylpnbgiacBxxxJHU+anfH2srRtZaChv1wNZS1HwtU4Br/s5a/HI9wVqNCuqFtcc9fpjZ4zgi2NWnTq5qdPJqeyK+VjL021ySyS0krHFrXEkRkDOR2BwRjyVhtGTe7q5YSeD2hwHiD/AHqLtEaKg026SpkmNRWyN3d/GA0cyAPHA4qRdMP3LzCP5QLfpn8lsVfUZ6vCrb9G0n2zkh6xKnWU3TW2DepWh8bmniC0gjzVFtQ0nwF/udHxxT1UsQz/ADXkfkr2DsqZ7XaYUu0m/wAbRge/3/VzWuP9Zek1OiMHCVRqvOHlZ+xpqIiwnfBERAEREB6enrrNY75RXKmJElNK2QAH7wB4j1GQrvWa4Q3S1UldTODoKiJsjHDqCAR+Kofg5wrNezZfzXaWqLRM/MtBISwE8fdvJIHod75hZKbw8HI8VWfPSVxFbp4fyZMqIizHBhERAEREAREQBERAEREBrG0S9s05o26XIkb8URbGO8juDR8yPTKpS55e5z3kucSSSeZJ6qw3tPXr3VvtdoY/BmkNRIAejRgZ9XH5Ku45rDUeXg9C4XtfStnWfWT/AERhERYzqAiIgCIiAyVZj2YHB2jLkzqLg8nyMcY/IqtA5KwPstVv/h7/AETjwa+KZo77wIP9UfNX0+pz/EsHKxbXZp/2J0q2F9NIxo4lpAC0tunbhnJjaP8AeC3l53QSBnA4LU5tUTB7mtp2ggkcSVz3EFGxlyzvG11xjucJZTrLKpJPyfFmmKxx+0+Jo8yT+C7DNKPI+3VNHkwn8wuq/U1afutiHoT+a+TtRXB3KVg8mD81ziqaFS/+rkTuW9l3SPWbpWID7dQ8+QA/VfZmmqJo+2+R3mR+QWuSXm4POHVL/TA/ALXdVavjsFI2avqp3F53WRteS5564GeQ6lZaV9pkpqFvbtt9EysbS7qSS5934JKFhtzBkx58S4rl8DaIvvNgb5kfmVCWnto1Be69tJIyamnecR+9IcHntnoVumchX3Gq0rOXJK1SfuZKmmV6bxVm0yQ6H4Jr3No/c7wHHcxnHjhdwOBcQCCRzGeS8LT9OLban1Eww9433Z5gAcB/33XkWm7OF5fJM7DJzunJ4Dt8uS6COrxtoUY1opOfZdEn0NS7Zzc3F5S7mwTx2oyOEgp98E7wJAOfFcTQWiQfZZAfJwXkasoNx7auIfZdgPA79CtbyQ3OcBaTUtWVpculVoRfh+UyZbWrqwUozaN5Njtj/wBwejz+q4v05b3fyh5PUE3fafQUNe+npqaaqbGd18jXADI54zz+i3HTuoYb5b21dBNIGE7paXEFhHMEZVta7pUqaqV7NJPuTJ6VdU4qTm0mSAdMUjvuzSj1B/JfJ2lIT92oePMArWxW1Q+7Uzjyef1XMXisj51cgH852fxUNalpNTrbtfIwq2u1+WZ7btKuA+zVg+bP719LZp+ajuEMxmY5jSSQAQTwIXjsvtwxkVJI8Wg/kvW0/daysrxDM8OjDST9kA/RSrKrpFW4gqVNqWdvn9zHWhdwg3KSa7m1dFTrbXIJdp9+cMfxjBw8I2j8lcR/Bp8lSHXtX8dra+1Gch1bKAe4DiB9AF31T8pP4Ti3czl4X9zwERFhPQQiIgCIiAz3UhbDL8LJr+jZK7dp64Gmf2yfuH/iAH+8VHw4lfSlmkpqiKeIlskTw9rgcEEHIP0VYvDyRL2grmhKm+6ZfgDPHwReRpS6MvOn6CvjwW1ELZOHIEjiPnlewpR5DOLhJxfVbGURFQoEREAREQBERAY4IcDihXmahuDbXZK2tfgNghfIc+DScKpWEXKSiurKo7b72L1tDuBjdmCkIpWebPvf9RPyC0I8cL7VU76mqmnlJMkry9zjzJJyT9V8jwUWTzLJ6/ZUFQoRprskcURFQlBERAEREBk8SpU9nO4ij198M44ZWQOjGTzIIcPwPzUV+K9PTV2ksd/t1yiDi6lmbKQOZAPEeoyPVVi8PJB1G3+Itp0+7Tx8y9RGRhR1eYTT3SePGBvEjyPEfit7t9VFXUNPVQPEkMzGyMcORBGQfkVr+sqQH3VU0fzXH6j81oOK7R1rTnXWLz9DzPT6npVuWXfb6kF7UNXVtrrY7bbJBC8sD5ZQMkZ5AZ5dyfJePoPW9y/bVPQ3Od1VT1LxGHP4uY48Ac9RnhgrZNo+iqi+1EdfbHMFS1u45jzuh4HIg9CPFePobZ9XUd2hr7w1kbadwfHE14cS4ciSOAA581oqFTTVp3LLHNjfzk7mErb4bDxzY+uSWOmVE22qgqX1FFXNY51KxhicQMhhzkE9s5x6KWRwGFxlZHKxzJWh4IwQ4ZBHiFzenXvwNdVks47GuoVnRqKaWcFbNL0FTcb7Rw0bHGQSteXNHBgBBJJ6AK0tgozW10bXj7DOL/IdPVeLRW+jog4UdNDAHHJEcYbnzwFv9hpm261unlGHvG+4nmBjgP8AvuumpV1rl5Go44hBZeTBrOourFYWH0Xk6mrq0siZSRnG99p2Ow5D5/gtVAwvH2jamktVsqLluh08jxHE13IE8s+AAJ9FDVPtA1BDWCd9YJW5yYnMG6R24DI+ajXFnc6zVnc0mlGLws+3gv03S6kqOY/UtnZall0tToJjl7RuO7+a0q80MkDqmlJIfukB3fI4FZ0VfWzRUdwjy2KoYC5pPIHn8itu1TbxUUoqoRl7Bxx1H9yz1oPUrHnx/u0tn5aRqY5srlwfR/oyl1xo6i3V01LVsdHNG4gtI5+PkVL2xq3VNLZ6ioqWOjjqXh0TSMZaBjPkfyW91FDS1L2vnp4pHt5Oc0EjyyOC+7cDgOigajxA7u29Dkw9sv5HS3GoOvS9PGDDsgFwVe9a36vud+rBJPKyGGV0ccTXEBoBxy78FYYc8KPNU7N4rpcpKyhqhSulO9Iws3mk9SMEYWHQLq2tqrdz3Wzxkt0+tSpTbq+NmefsdvdZVy1VtqpXzRMYJY3OJJbxAIz24j6qedGQEyzzEcAAwHx5n8lGmi9JU+moZBHIZqmbG/KRjIHIAccBTLY6b4K3RxuGHkbz/M/9gei3el06V9qruKKxCK8dzT67cQefT6M46kr22qw19e8gNp4Xy5PgD+eFRqWQyzPkeSXPcXHPcnKtB7ReoBbNHNtsTgKi5PEeAePu28XH54H+8qtruar7G04UtuSjKs11e3yRhERYzrQiIgCIiAIiIC0fs3Xr9o6Kkt8j8zW+Ysxnj7t3Fp+e8PRS3wVW/Zvu5odbzUJdiOugLcZ4FzTkfTeHqrSKRB5R5br1t8PezS6PdfU5IiK404REQBERAEREBx7KNPaCu37N2d1MLTiStkbTt48wck/9LSpLKrt7UNzMlys1sa77Mcb6h7R1JIA+QDvmqSeEzZ6NQ9e9px7J5+25BSIijHq4REQBERAEREAREQFnvZ11Q256ZfZ53/8AirccMBPF0ZJ3fkcjw4KVq+nbV0skL+TxjPY9CqV6I1HUaV1JSXOnLi2N27KwHhJGeYPpx8wFc2x3Knu9rpq+jkbJTzsD2uHUH8xyPiFfKEa1NwmsprDPNtfsJWlx60PyyefkzQ6mB9PUPjl4OYcHx8V5d8ukFntVRW1ZIhiGSBzJJwAPEkgKQdS2v4qP4iAfwzBxA/eH6hRVr+zzXnTNRS0x/hwRIxpOASDnHqM+uF5ZeaSrK+VKrtTb2fsSrCvC45ed43SZo7Nq8/xu9JbWfC55B53wO/bKlG21kFxoYaunO9FKwPafA/mq5MsN2kqxStt1V7/OMGMjHryx4qf9I22S0afo6GbDpI2YdjiMkkkD54U3XrKzoU4fDY5m+ifU3eo0aFOKdLr/AGNq0/Q/G1zC4Zij+0/x7D1XtaurRHEykjPF3F+OgHIep/Bd2y0jbbazJNgPI948npw5egWnXCpdWVck784J4DsOgWWv/wDE6YqK2nV3flI5Wn/yrhz7R6GtaxsTNQ2SaiL9yTIfG88g4cs+GCR6qKafZtfZawRTNgigBwZt8EY7gDj+CnMFo6otLZazc2VN0qfR+ex0FC8q0IuMejOpaKGO226noocmOBgY0nmcdVv2mK0VdA6nlOXx8OPVvT9FpmeOF27XWGhrY5h90HDx3B5rJo+pStbvnqPKls/qau9ouvB+eqPreqE0Fc5gz7t32mHw7ei1jVN4bYLJPXuZvlgAY3PNxOAPqpQvlIy427fi4yNG+wjr4eqi3V9m/bthqaHeDHvAcxx5BwORnw4YUrU9Op2d9GUv+qTT+hXTa8aqSqdnhkRR7Sr+yt98+aF0WcmD3QAx2BHH6qZ7Dco7taqauhBDZmB26eYPUfNQfHs/1A+sEDqVrBnBlc8bgHfKnTSlkNDbqO2UxMjo2Bu9jGT1PgFJ1ylZ1IwjZpOTeMI3mpO2jBOnhP28Gw6coHVla17gPcxEE+J6Bb1gAEnHBdS2UTKClZDGATzce56lRxt21qNOaedbaKXdudcwtbunjHGeBd4Z4gevZdhoenLT7ZKX5nu/4OMkp6hcqnT77L+SEts2phqbWlVJA/eo6QGnhIOQQCckeZzx7YWidCsZwMLK2LeXk9QtLeNtSjSj0SwcUREJAREQBERAEREB7uh7p+xtXWmvJwyCoYXns0nB+hKvAzi0HuFQPllXZ2cXR150PZq6R2/LJTMEju7wMOPzBWWm+qOI4tobwrL3T/sbMiIspxgREQBERAEREBxA5Kom3i4fH7Sbi1pyymayADtgAn6kq3Tz9gnwVGdV1v7S1NdazOWzVUjwf5pccfTCx1Htg6nhSlzXEqnhfueQiIsJ6CEREAREQBERAEREBy5HIUr7D9of+DVc20XebFpqX5Y9x4QSHr4NPXsePdRPxBwnDmqxk08oiXtnTvKTpVF1/R+S/THslYHMcHNIyCDkELWtQ2Myb1TRtG/zewde5Hj4KEdj21d1mEVn1HIXW8YbBUuOTD4O7t8eY8uVjqeeOphZLA9skTwHNc0gggjIII5gqPfWFHUKTp1F8n3TPNbq1r6XXw+nZ9miNCCx5324I4EFetpyh+LuDXuH8FH9p3ieg/77LZLvZIK7MkeI5u4HA+Y/NfS00TbXb3CUguGXPI5f94XHWnDVWheJ1t4R3z5x2MtbUFUpYjtJ7Hn6trfdwMpGHBfxdjsP1P4KHtp2pZ7BbYI6LAqqlxDXuGd0ADJx34hb7cqp1ZWyTuPAn7I7AcgtN1/pj/CW3xthkEdVA4uiceRyMEHwOB8lra9/Ru9TVSvvBPC8bG00ujCi4Kp06si2ya7vVDXxy1NY+pp3OAfHJggjPHBxwKnVs7fhRO4/Y3N/J6DGVD1k2ZXN9fGbm6GKlY4OduO3i4A8h2z3Ux+6b8P7nA3cbuOmMYwq6/Usp1IfD498G21CVByXpY98EFXjaFe6uvklo6o0lOHHcjY1p4dN4kHJUk7NtSTahtcorA34uBwa9zeAcCOBx0K0O87M7rFXyNtnu56QkljnPDSB2IPbupD0Bpg6btj2zyCSqmcHSFvIYHABTNWnpzskqGObbGOv1Mt5K2dBKnjO2MdSV9JV/vIXUkp4s4sJ6jt6LzNT0HwtZ75gxHKSeHQ9R+a8ugqX0lVHPHxc05I7jqFvtVTx3Kg3H5DZAHAkYIPMHHdZ7CP9a0528vzw6P2OPrf8Supro+poFLTyVUrYoGF7j26eJW8WW1R26HPB0xH2nfkPBfe3W+noI9yBuD1ceJJ8SvG1rq+26Ptrqu5yjfIIihBG/IR0A+WTyC3GicPQsV6tXef6IwV7qpeTVKknh9vJz1zqqh0lY5rhXyDIBEMQP2pX9Ggfieg4qnepb5WajvdVc7hIXTzuzjPBjRwDR2AHBehrfVtx1feX11wduxgkQU4P2Ym9AO57nqfkta5nIXQTllncaJo6soc895vr7LwjCIitOgCIiAIiIAiIgCIiAyeatL7N1x+L0G6mccupah7MdgcOH4lVZKnr2W67dqr5QOPNkc7R5Egn6tV9N4Zz/ElL1LJy8NMsMiIs55qEREAREQBERAeLrKvNr0rdq4H7VPSySjzDSR9cKjY+6Vb/AG5VfwmzO74OHStbEP8AecAfplU/PALDUZ3fCVLFKdTy8GERFjOvCIiAIiIDPFMld+ns10qYveU1urZYx+8yBzh8wF03sfE8slY5jhza4EEehQxxqwk8JnzREQyBERAFIGzzaVddHvZTnNbaiftU7nYLAeZYeh8OX4rQOacQibW6I1zaUrqDp1VlMurpDW9l1XTB9qq2mUDL4JPsyM8x+YyFs0jGyMLXAFpGCCMghUKpqielnZPSyyQzMOWyRPLXA9wRxClXSe2++2oMgvMbLnTjA3z9iUDzHA+oz4rKpqaxJHF33C9SDcrV5Xh9Sw1ZpyknyYswuPbiPkV49TpirYT7p0crenHB+R4fVePp/bNpW6ljKipfbpjw3aphAz/SGW48yFvtDd7fcIRJQ1tNURnk6KQOHzBWmueHbG6fM44flM0spXto+Waa+a/uac+x3Bh405PkQVwForyf81f8lIQew8nD5plvUha18HWre0mVWqVe6RoUVguDz/Eho7lwXp0mlnHBqpwO7WDP1P6LZ3SsY3LnNA8TheFedZ6eszXftK70kLm82GQF58mjJPoFKt+FbGi+aScvmW/GXVbaC+yPQorTSUZDooxvj953EruySMiY5znBoAySTjAUM6k282mmD47FR1FdIOAlkHumeeDxI8wFDmr9omodVF0ddWOhpCeFNTksYfPHF3qSt5RpUbePLSSS8JE+20G8u2pVdl5fX7E47QtslrsUclJYSy43HiN5rv4KM9yRzPgPmq5agvVw1BcpK67VL6iofwyTwaOzRyA8AvLGOqyMA5IyFWUm+p2mnaRQsV+BZk+rfU4oiKhtQiIgCyhQAucA0Ek8gEKN4HDss8Oy2C1aM1HdwHUFkr5mHk/3Ra0+ROB9Vx1FpC+6chZNerbLSRPcGNe5zXAuIJxkE8cA/JMMjq8oOfpqaz4zua+iIhJCIiAyOOApN9nivFJtJp4icNq6eSH1ADx/UUZcgCtn2ZVZodfWKYHGKljSfBx3T9HFVi8NGv1Ol6trUj5T/wAF2EWG/dHksqSeShERAEREAREQEP8AtMVfudE00Gce/qmjzwHFVgPNWA9qapxHYaUH7zpZSPIAf2iq/jmsFTqelcNU+SxT8tswiIrDoAiIgM8ASrJbHdl1FR2qmvN+p2VFwnAlihkGRC0jIyDzcRx48uXdQVoezm+6stduDd5s87Q8fzAcn6Aq7jWiOJoH2Q0YWWks7s4/ijUJ0VG3pvDe7x4OIiija0BrGgDAGMcFqWvNBWjV9BKyogjirt0+5qmNAew9Mkcx3BUB7bdY3G5a2rKOkrp4rfQuETI4nloLgBvOODxOcjPYBTLsIu9xvGho5brJJO+OZ0ccshy57RjGSeJwcjPgr1JN8poamn3FjQheqeG8bd9yHbLsW1NXVMzKoQUMMchYJZSSX4JG80DiQccCcL2bjsBu0MG9RXalqJQM7j4yzJ7A8fqp31bqG36Ys01yu0pZBHgANGXPceTWjqT/AP3gtZ0HtRs2sa+ShpoqmlrGgubHOAN8DmQQSMjqDj1VOSK2ZK/rWp1YutD8q64WxVrUVhuWna91FdqR9POOIzxDh3aeRC8nA3c9VcfappOm1VparhkjHxsDDLTS44seBnGexxgj9AqcuBBIcCHA4I7LFOGGdVo2qrUKTlJYktmu3zMZ7LPA+CmHZlsekv8AQx3O/wA0lLSSAGKCMYfIO5J5A9Op8FKbdjejmxe7/Z8jjjG86Z2fxVVTbWTDc8R2lvN08ttdcFSsdeSyOJ4cFYvVOwa3y0z5NO1ktPUtBLYpzvxuPYkDI8+PkoCvNqqrNcZqC5wOgq4jh7HfiDyIPQhWyi49SdY6rb36xSe66p9TocTxX0gmkhfvxSPjd/KaSD8wts2f6EuGtpK2O3VMEBpg0uM2cHJPAYB7LaZNg2qgTu1FpcOmJXg/ViqoSe6LbjU7OlN06skmuqZH1PqW+UwxDeK9oHQVDv1X2frDUbxh17uBHb37v1W3VuxPWFNEXsho6ggZ3YZxk/8AEAtCu1pr7NWGlulJLSzj92VpBPiO48lRqUepWjVsbl/7fK39MirvVzqs/E3GslB5h8znD5EroYyclDzW06Q0LfdWvBtVIPhwcGolO7GPXmfIAlU/EyTVnQtouU8JL6GrkY5pjspzpPZ7rXwh1Tf6eOXHFrKUuGfMuB+i1jVWxrUljifPSiK50zASTTgiTHcsPP0JVzhJdiFS1yyqz5IzWffYjPmeKE54Dkjg5pLXAhwOCCOIKl3ZTskl1HDHdb8ZKe3OOYom8HzDuT0H1Ph1pGLbwiXeX1Gzp+pUeF+r+REIPcLJ8ArqWzQ2l7TE1tLZqEED70kQe4+ZIJXxvOz3S14ie2ps9G0u/wBZDGI3DxyAPrlX+mc6uLKXNhwfL57lMcjdwBx7qbLVsFrKqxMqqq6sp66SMPEAh3mNJGQC7IOehIHDxWs7Vtm0+jZhV0bn1FnlduCRw+1E48mu8+h6/jNmyDVlVfdBvrbv7tr6RzoTICRvhjAd4+ODxSEFnEjLqup1ZW8LiyksN4fn5FWai3VUV2fbTGXVbZvh9xvHefnGB5lWn2a7MbZpaghnroYau7EB0kz2hwYT0YDyA78yq0U97Ddax3uZhcxtcKpzepaJMkDxwrnWi60V2t0NXQVEc9PI0Oa9pyCD+Hkq00m2ROJLm4hTpxWUmt8efBrl92jaW0/VyUldcYhURnD44wXuB7HHAHwUO7ddd2fVdptlLZah0wjndLICwtxhuBz/AKRUx1uzTSFdVS1M9lgfNK4veQ5zck8zgEBdOv2R6OqoSxtpbASPvRSOBHzJCvabWDTWF1Y21SNWSk5L5YKhcQhHDK3Dabo9+i9RvoWyOmpJWCankcOJaTgg+IPDx4LTx91RmsPB6Pb14XFNVabymsowiIqmYyea7dpnNLdaKoBwY5mOz2w4FdQJlDHUipRafcvxSyCSmheP3mgj1GV9V4mi6v47Sdpqc597Sxuz5tC9wKWeOVY8s3F9mzKIioWBERAEREBWD2m6oy61oaYHIgow7HYue7P0aFD/AFUhbeql1TtPurc5bA2OJvpGHH6uKj790KPN5bPVtGp+nZU17Z++5xREVptAiIgJm9meziq1RW3SXG5RQiNmer3k8vIA/wDEFYq9VsdutFZVzENjgidI4nkAAT+So1QV1ZQVAmoqmamlH78Ty0/MLaanaRqersVVaau5OqaSoZ7t5kaC8DIyA7nxxjyKyRqJLByeqaDWvLpV4yWNtn2SNVuNU+tuFTVyuJfPI6Qk9ySfzVx9ltr/AGNoOz0rm7snuGyvGOO87ic+PHHoqc20UwudKa7eFH71nvi0ZPu8jewOpxlW8sW0rSVyjjZTXenidgAMmzEfrhKeMtsxcTQqulTpUotpbvCeNtiPfaiuW7R2e2sdxke+Zzc8wAAPxK0z2dKE1W0Jk4zu00D5D64A+pXX2+3hl219I2nkbJT0sDImuY4FpJG8SCOB+8B6LePZctp+HvdzeBhz46dh8gXOH/U1V6zDXwei4ezkv3JxucjYLfVSvxuMic457AEql2krYNQ63t1Ful0VVVjfaP8AZ53nfQFWx2qV37O2fXyoB3XCmcxp/nO+yPqQq++ztR/FbRIZnDLaWB8gPYkbo+hKunu0iDobdGyuK68YXzLUQxthibGxoa1oDQAMABV12nbWdQUGrq23WGpjp6Sik9253umvMrh97JcDgA5HDHJWPIytAvOyvSV3rJ6mst5FRO90r3xyuaXOJJJODjJJJV0stbGn0yvb0qrndQ5ljp7nq7MtRy6q0dRXWpjbHPJvMka3lvNcQSPA4yov9p+zQCktN4Y1rZ/emmeQOLgQXDPlun5qY9LWGj03ZKa120PFLBvFoe7eP2nEnJ68SVFPtRy407aIs/eqy/Hkxw/tKkvy7kjS6iepRlR2Tb29vB0PZbhzBf5cfvxNz6EqYdX36HTWnqu61Eb5IqcBxY3GTkgcM+ai32XYt3T13lx9+pDc+Tf71KWr9Pw6l0/VWqqllihnADnREBwwQeGQR07Kkc8uw1eUHqUvU/LlZ+Rq2hNqVm1fc/2dTxT0tWWF7GStGHgcwCOoHHHYFdva3pam1Ho6ua6Jpq6eN01PJjiHAE4z2OMHzXU0Lsrsuj7oblSz1VVWbhYx1Q4YjB54AA4kcMlehtV1LT6b0hXyyytbUzRPip2Z4ueQQCB2GcnyV3b8Ribpq9h8BnGVj5/wVe2baa/wr1bR215cIDmWct5iMcT5Z4D1VxqSlpLNbGRQRx09LTx4AaAA1oH6BVr9mmWNmvahj8CR9E4MJ6kPYSB6An0Vh9b0U9x0heKOk/ziekljjx1cWEAfMq2Cwsmx4irTq3caM3hJL9erImvO36kp7i+G12mSqpWuLffPl3C4dwMHh5rt33bjazpb31qY83iXLBTyt4RHH3nHkR2xzVb5I3wzPimaWSMJa5rhgtI5gherBp261Vlmu1PQzyW+J26+ZrcgHv5DqeQVnPI3r0HT4RjN7Yx36n203SSal1pb6arcXurqxvvn8iQXZcfPGVdemgjpaWOGBrWRxtAa0DAAAwAFSDStz/YupbXcsO3KaojkcBzLQRkeoyrvUNVFW0UFTTPa+GVgcx4OQQRkFXUu5qOKlNVKf/jjbwVG2n60ut/1RXg1U8NDTzPhgp43kNAa4jJA5k4yT44W+ezxrK4z3mawV9VNVU74jNAZXFzoiMZAJ44IPLoRw5ldbaZsgvMuoq2u05EyppKyQzGIvDXRuJy4ceYySRjlnC2nYpszrdL3CW7XwxtrHMMUUMZ3vdg8yTyycYwFRKXMSLu5sJabyQxnCwu6ZImvrdDddH3ejnaC19O8jI5OAJB+YCpiy6XCGiNDFXVDKTJJgZKRHk8zgHHFW12v6lptOaNrS6RvxdSx0EEeeLnEYzjsAck+XdU9GMqlR7mXhWjKVGbmvwtrGfPsMHGei3/ZlpjU2oYK6TTFzfQ/DFrXYnfGHEgngW9sfVaCcgbpUr7I9pdr0TZ6ikraCrnkmlMpfDunPAADBI7d1bDGdze6t6yt36EeZ7bNZNrtmgdpxnb8Tqt8DM8S2pkl4eRAU1WemqKC1QQV9a6tqImBslQ9oaZD3IHAKHq32g7a2MmhslZLJjg2aRsY+Y3lG+sNreo9Rxvp2yMt9G8Ee6psgkdi48T6YHgsrmkch/Sb+/klUgoJd8Jftudnb5qOlv8Aq+OGge2WGhjMJkacgvJyQD1APDPmoy/dKcuCclhk+Z5O4srVWtGNFdEsGERFQlBERAXE2J1fxmzKyPJGWRGI+G48t/BoW9Dqom9myrM+gHw5/wA3qpIwOwOHf2ipZKkxeUjyLUocl1Uj7v8Ac5IiKpCCIiAI7kUWH/cPkgKWbU5zUbRNQSZzipcz5cPyWqDqvc108yayvjzzNbKf+orwx90qNLqewWMeW3px8JfsYREVCUEREAREQBERCmDIOOYW3aP2hX/SlMaa0VMIpS8vMUsQc0kgAnPA8gOvRaiD3TyCJtdDFWt6dePJUSa8NEj6v2r3fVOmp7RX0tNG2V7HOkiJGQ1wOME45gH0XDY3rK2aMutZU3WOpf76NsTDCwO3RnJJyR4csqO+SEnmrud5yRHpdv6EreC5YvrgtNe9rulKzTlwbQXNza11O8Rxvhe07xBAwSMZye6rrQ6t1DQYFJe7lEByaKh+78s4+i8PnxTgjm2R7LQ7e1jKKWU/OGXc0bXCfTFsfWVbZqp1PGZXOeCXOIBJOOqiD2pZ2lmnImOBbmdxx5RgfmoHhqZ4f4qaSP8AovLfwXOprKmpDBU1M0wZnd948uxnnjPLkrnUysGvs+HvhrtXCnlJt4x5LK+zPGGaGqpDzfWvx5BrB+q2PbFqm4aT0m24WoxCoM7Ix7xu8MHOeGR2VWLTqe+WeD3FrutXSw5J93HIQ3J5nHLK+151dfr3RNpLvc6irp2uDwyTBAIzg8vEoqiSwYavD1SreuvNpxby17Fstm+rqfWOnIK+LDKho3J4gfuPHP0PMeBUY+0Xo2pqWN1LRumlbA0MqIi4uDGjk9oPIdwOHXuoX01qm86Zmlksde+kdMAH4a1wcAeGQQRnxXu1G1TWdTC+Ce8mSJ4ILXU0JBBGCCNziFV1FJYZbS0GvaXfr2zXLno/Hg1zTN6qtO36judFj30D97dPJzeRB8CMhW60Rrm06tt0c1FUMjqQB72me4B8Z6gjqOxHA/RUxd9pxLiASc8BgLnBNJBI2SCR8cjeTmEtI9QrIzaNrqujU9QSnnEl0f8AJdO6aJ0zdq01lws1FNVE5dIYxlx8cc/XK7VzuNj0xaCKySloaCJm6GYDWgdgB+ACp/HrPUrItxl+uQZjGBUOx+K8itr6u4S+8rqmaof/ACpZC4/VX+quyNNDhivNpVquYroln/1Hra5uNruupKursNvFDb3n+DiHDePV2OQzzwOAWz7Odqlz0jC2hmjNdbActic7Do88909vA8PJRx0WeOMrGpNPKOoqafRq0Vb1FlJLr129y1Ft246SqYt6rfWUj/5MkBdx8C0kfgvH1Dt8tMDJGWOgqauXH2XzARMHjzJPyCrcMlDkK71GamHDFnGXM8teH0Pa1VqW5anurq67Tb8mMMY3gyMdgOgXi8eacFni7gFY3k39KlCjFQgsJdEjiiIhkCIiAIiIAiIgCIiAsd7LcubFeYOrKhr8ebQP7KnEKAPZXfgagZ0JhPy3gp/6qRDojyvXY8t/U/8AexlERXGpCIiALjJ9w+S5Li/7p8kCKNayaW6svAcckVcuf+Irx+62TaLA6m13fYnDGKyQjyJJH0K1zqor6nsNnJSoQku6X7HFERCSEREAREQBERAEREBy6Y6rYtDaVr9YXuO327DB96adwJbEzPEnuew6ntzWu4LuIBJ7BW62K6RZpbSUL52AXGtAnnJHFuRwZ5AfUlXQjzM0ut6l8DQzH8z2X8mmVns+0JoyKK81bard4GZjXMJ8hggep9VB+p9P1+mbtJbrrCI5mcQ4HLXt6EHqCrxniD0KjPbfor/CjTvxVDGHXSiBfGAOMjf3mefUeI8VllTWNjmNJ4grxrqFzLMXtl9iqCwuRaWuIcCHA4II4hYCwHoCeTCIiFQiIgCIiALKwiA5HIKkHZxsvumsojWGRtFbQS0TObvOkI5hrcjPmSB5rX9CaYqdWakpbZSghjjvTS44RxjmfPoO5IVzbRbae02yCiooxHTwsEbGjoAMK+nHO7OY1/WXZpUqL/G/0RAOrNhUtBZpaqxV8tXVRDedTytA94Bz3SOR8Dz7qEHtMbnNcCHNOCCMEFX6PHyVV9v2kRYtSi6UkeKG4kuIA4MlHMeR5j1V04JLKIega3Vr1Hb3Dy30f9iKkRFiOzCIiAIiIAiIgCIiAIiICffZZ/jL/wD+1/aVgioG9lmnIor7UEcHSRsB8gSfxCnlSIflR5br8lK/qY9v2RlERXGnCIiAIiICp/tDWh9v2gS1YaRDcImyg9N5oDHDz4A+qjHz9FbrbFot2r9ObtIB+0qQmWAu4bxxxZnpn5ZAVTK2jqaGqkp62F8E8RIdHIC0g+IKwVI4eT0rh+/hcW0aefxR2a9ux1kRFYdAEREAREQBERAZ5ogX1ghlqZ2Q08bpJpCGsY0ZLnHkAELZSUVzM3fY1pd+p9Z0zZGZoaMioqCRwIB+y3zJx6A9lcFrQ1oA4YWgbHtH/wCCWl42VLQLjVYlqSOO67HBueuBw88rfxzKkQjhHl+uX/xty3F5itkckIBGCiK405A21jZDJXVkt40sxgmky6ekOAHu/lMPIE9R6hQJcrfWWuqdT3ClmpZxzZIwtP15jxV8jyXQuVqobnTmG5UcFVEebJow8fIgqx0090dHp/Eda1gqdRcyXR53RREEdkJ8FcOt2UaOqyXOs0Ubj1jc5n0Bx9F5UuxLSL8kU9Sz+jOfzCx+mzfQ4rtmvxRa+38lUfVPVWnOwrShOR8aB29+f0XyfsI0w5xIlr2joPeg4+iemzIuKbN+fsVdynDurSN2E6WbjefXH/3sfku3T7EtIQkF1PUyf053Y+mE9NlHxTaLom/oVQ5rZNKaMveqahkdpoZHwk4dUPBbG3zceHoMlWotuzXSNuc19NY6VzhxDpW+9Oe/2iVtkMLIWBsbQ1oGAAMADyVyp+TX3PFmU1Qhv5Zp2zPQtHoq1e6jeJ62bBqKgtwXO7AdAOg9VuxCckPJZUsbI4+tWnXm6lR5bHDktQ2o6ZGqtHVtCxoNU1vvacnpIOIHrxHqtv6lY5+SNZWClCtKjNVIvDTyUGex8Mjo5Glr2ktc0jBaRwIK48ipd2/aJls99ffKGEm31ri6UtHCOQ889geYPfKiIc1GlHleD1uwvIXlGNWPf9GcURFQmBERAEREAREQGSOqEkpyK2/Z3oyu1hfYYIInigY4OqKjk1rRzAPUnkAO/bJRLOyI9zc07em6lR4SLA+z7Zn2vZ7TyytLZa6V1SQRxAOA30LWg+qkz09V4ddc7RpS2QMrqqGipmNEUYccZAGAABxJ8guNk1dZL5UGntdximnaMmLi14HfdIBx6KUsJYPKLl1LmpOvyvDbeTYUREIgREQBERAcQcrwr9pWx35v/m9spqpwGA57BvDyPMehXuAYWVUup1JU3mDaflEU3XYbpSsO9RtrKEnpFMXD5PBP1C1Wv9nx2SaC957Nnh5eoP5KwCyrXFPsbKjrV7S2jUb+e/7lYKjYNqNhPuKyhlHQklv5LoybD9XszhtA/wDozH82q1qxhW+nEmR4mvl1af0KmO2K6yB4UtKfKcL5nY3rQDIoIT4Cdv6q3CJ6aMi4pvF2X2/yVFZsb1mTxt0Y852fqu/S7DtWzEe++Cgb1Jl3j8gFatYT00UlxReNbYX0/wAlfLR7P0pLXXS9bg6tgiyfLJP5KR9F7L9PaTn+KpYZKquAwKipIe5vkAAB54z4rfVgK5RSNbc6vd3Kcak3h9lschyREVTXBERAEREAREQBERAEREAREQBERAEREB07hRU1xpZKWuhjnp5AWvje3II7EKIb3sFstVNJLaq+poA4kiNwErG+Azg48yVM/JZJRpPqSrW+r2rzRk1+32Ky3LYJf4STQV1FUN6B29GfwK8GfYzrSM/Zt0cniydmPqQrcorPTRt6fE97FYeH80VAGyDWpJH7IAx19/Hg/Vcm7HtaHObWwec7P1VvUT00ZP8AVV5/4r7f5KkM2MazfjNDA3h1nb+S7EWxDWDz9qOhZ/Sm/QFWvWU9NFr4ovH0x9v8lYqPYHf5CPia+hhHXd3n/kFslu9n2laQbjeaiQdWwxBv1JP4KeFhFBIjVOIb6ptz4+RG9p2M6Pod0voZayRv79TK52fNowD8lvttt9JbKZtPQU0NPC3gGRMDQPQLudVggq5JLoaytdVq/wD2Tb+bK/7R55ptTazq5ZnsrLTDSx28B26WNkLC9zfEkkZ8cLz3iqbQ1F1mmmbXW67QU9GyeQPqGOLgJI3OAGWuBDgOPAZHNS7rDQ9NqCtjr4Kp9Dc2NEfvmxiRsjAchsjDwcAeI5YXRtWzw/tyK7aiuhutXC8SRsbTtp4w8DAeWgnecByJPDJRp5NvC/oqiot4aXT7beNyQIiTG0nmQuaBFU0LCIiAIiIAiIgCIiAIiIAiIgCIiAIiIDhjhxUL7TNrNx0lq2otNJb6eoijjY8PkcQSSATyU1Y4qpXtB5/xm12P9jF/VCtm2lsbvQLWldXThWWVhvH2Ng/ygbzn/RFH/wAxy2LSm3imrK2Kmv8AQ/BtkIaKiJ5cxpPLeB4geIz5LjsX0Tpy+6Ep6y7WyCeqdLI0yO5kB2AOBUPbSrRQ2HWt0ttsdvUkLxuAu3izLQS3PXBJHHjw48VY3JJPJvqdnpt3Wnawg4yWd/kXIq6r3dufUwbrwIy8ceBGMjj2VfqLb1d6isp4jaaNrZJAwkPdkAkBSjs5qJqnZJb5ahxdJ8EW5PMgAgfQBVKtH+lKPh/rmf1grpyaxggaPptCr60ayy4bJ/cubrq/S6d0bW3mniZLNTsa4MeSASSBxx5qEB7QF53if2TRcf8A8jlYO4W2lu9odQ3GFs1LMxofG7OHAYPTxAWl3fZ/oO0W6eur7RSxU0LC97nOdgAevHyVWm+jNdp9azgnC4puTb2wRh/lAXn/ANIo/wDmOWx7PtsNy1Nq632mqttLDFUFwL2PcSMNJ4Z8lBmqa6guV6mlstvZQ0Gd2KFuS4tHIkknifpyU/bDdnRs0Lb9eYsXKZn8BE4cYGEcz/OI+Q81ZFtvGToNSs9PtbV1HDEmtlnfP+DvbXNpddom8UdHR0VPUMnhMpMjiCCCRgY8lof+P+8b2f2TRf8AMcpy1Ho6xajniqL1b4qqWJu4xzyQQ3OccCOqi7aradC6Ms5MNjpZbpOCKeIvdwPLfdx5D6ngrpJrfOxqdNqWNRQozouU31a//TXv8oC85/0TRH/fcpW2Sa0qtbWerraylipnwzmICIkgjAOePmqsaYsVdqS9Q222xb1RMeLsYbGOpPYBXA0Npai0jp+K3UQLnNG9NKRgyPI4k9vAdBhUhJt7kvX7axtKap0opTf6L3PO2jbQbboqkj+IBqa6UH3VMwgEjuT0HioZqtveoHzE09FQQx54NdvOPzyFpu1i5zXXaDepp3EiGodTsBPAMYd0AduRPmSpk2W7LtPVejaOuvNEKyqrY/eOc95G6DyAAIxgdeeUy28IyQs7LTrSFa6hzuWP1R09G7dY6ushpdSUbaYSODRUwuJY0nq4HiB4jOOynGKVskbXscHNcAQ5vEEHkVTLadpyHSusq220r3Ppm4ki3jkhrhkAnrjiM+CsfsJuctz2bW51S4vlgL4C4niQ1x3fkCB6KsJNvDIWtadQp0YXdssRljYkVERXnNBERAEREAREQBERAEREAREQBERAEREAREQBERAEREAREQBERAEREAREQGB5KpXtBjO02tx/sYv6oVtM8DyVa9tOjdRXnX1XW2y01NVTPijDZIwMHAAI591bNZRv+G6sKV3zVGksPrt4I8sc+rG24R2SS8Ch44FL7wMznjjHDK9jSuzLU2o7iz4ijmpKZz96apqstOM5JAPEk/jzI5qfdiFmrbNoOnpbtSPpqlsshMcg4gF2QVIOMA44K1QylknXvEUqVScLeCW7WfPueKLdBaNLGgpBuwU9KYmDsA0hUotP+lKLh/rmf1grzXRjpbdVRsG890TgAOZJBwFUS2bOtWx3Kle+xVga2Zri4gYABGTzSaeVgpw7cwhCs6skm/L69S3rJmQ0TZp3BjGx7znE4AAGSSeyq1tm2hy6quDrfbpCLNTv4Y4e/cP3j/N7D1U57XqC53HZ3V0Vnimmq5Pdt93EcOcN5uR5Y5qtv+LfV5/+n63A7Afqqzb6IcPULVSlcVppNPCTf6m/bDNnsdbLFqG+Mb8Owh1JA/k8j98jqB0HU8VYtskf7r2+QKp03QOtgQ1lnuQYBgAOwB9VteyzR+q7fr+z1NzttfFSRPcZHyO+yBuOAzx7kKkW1tgv1azhcudeVwnjol+y3J615quh0hY5q+uIc/BEUQOHSPxwA/M9AqiXe43TWWpTUT71TX1bwyONo4NGeDQOgH6lS/t70tqK+6ppJbXbquroo6YNBjOWtcXEnhngcY+ijJuzrWLCHNsVc1w5EYBH1VJtt4wStBpWttQ9VzXO13a2LG7KdEUejbM0vdHJdKhodUTZB4890HsPqeK37fa9hDXA8OhVOhoLXH/pFz+f96m7YDZLzZbPd2XukqKeSScGNsx4kBuCRx7q+L7YNPqlhGMXcuupyb6Lr+/Yrxrz/wCNr/n/AO+n/wD2FbHZ9rWqbRa6a30VRSimgYI2B0IJAHLJ6r7ax0Bquq1deaimslXJDLWSvY4AYc0vJBHHkQVYjQWn4KXRtpguNthZVx07WyCSNpcHY454c1Yk3J9jd3mpWtO0pqpFVOm3jYqRqa/12pru+43V7H1L2hpLGhowBgcArLeznhuzeIk//My/iFG+2PQt8uGuKiosdmmmo3RMDXQtaBkDj2Uq7DbRcLLoWOju1I+lqffyP93IMHBIwUhFqW5F1q8oV9Opqk0t08Ltt0JGREWU40IiIAiIgCIiAIiIAiIgCIiAIiIAiIgCIiAIiIAiIgCIiAIiIAiIgCIiAJgdkRAEREATA7BEQBMDsiIBgdgmB2REAwmB2CIgGB2REQDA7IiIBgdkREAREQBERAEREAREQBERAEREAREQBERAEREAREQBERAEREAREQBERAEREAREQBERAEREAREQBERAEREAREQBERAEREAREQBERAEREAREQBERAEREAREQBERAEREAREQBERAEREAREQBERAEREAREQBERAEREAREQBERAEREAREQBERAEREAREQBERAEREAREQBERAEREAREQBERAEREAREQH/9k=;" vertex="1" parent="2">
                    <mxGeometry x="550" y="150" width="180" height="180" as="geometry"/>
                </mxCell>
                <mxCell id="11" value="Please enter your preferred pizza" style="text;html=1;strokeColor=none;fillColor=none;align=center;verticalAlign=middle;whiteSpace=wrap;rounded=0;" vertex="1" parent="2">
                    <mxGeometry x="14" y="90" width="220" height="30" as="geometry"/>
                </mxCell>
                <mxCell id="12" value="Calculate" style="rounded=1;whiteSpace=wrap;html=1;" vertex="1" parent="2">
                    <mxGeometry x="50" y="320" width="120" height="20" as="geometry"/>
                </mxCell>
                <mxCell id="13" value="" style="endArrow=none;html=1;" edge="1" parent="2">
                    <mxGeometry width="50" height="50" relative="1" as="geometry">
                        <mxPoint x="75" y="149" as="sourcePoint"/>
                        <mxPoint x="145" y="149" as="targetPoint"/>
                    </mxGeometry>
                </mxCell>
                <mxCell id="15" value="Pizza size:&lt;br&gt;Extra Large: $10.00&lt;br&gt;Large: $6.00" style="text;html=1;strokeColor=none;fillColor=none;align=center;verticalAlign=middle;whiteSpace=wrap;rounded=0;" vertex="1" parent="2">
                    <mxGeometry x="30" y="200" width="150" height="30" as="geometry"/>
                </mxCell>
                <mxCell id="16" value="Number of toppings:&lt;br&gt;1 topping: $1.00&lt;br&gt;2 toppings: $1.75&lt;br&gt;3 toppings: $2.50&lt;br&gt;4 toppings: $3.50" style="text;html=1;strokeColor=none;fillColor=none;align=center;verticalAlign=middle;whiteSpace=wrap;rounded=0;" vertex="1" parent="2">
                    <mxGeometry x="-27.5" y="260" width="265" height="30" as="geometry"/>
                </mxCell>
                <mxCell id="14" value="" style="endArrow=none;html=1;" edge="1" parent="1">
                    <mxGeometry width="50" height="50" relative="1" as="geometry">
                        <mxPoint x="125" y="216" as="sourcePoint"/>
                        <mxPoint x="195" y="216" as="targetPoint"/>
                    </mxGeometry>
                </mxCell>
            </root>
        </mxGraphModel>
    </diagram>
</mxfile>